<?xml version="1.0" encoding="UTF-8" standalone="no"?>
<svg
   xmlns:dc="http://purl.org/dc/elements/1.1/"
   xmlns:cc="http://creativecommons.org/ns#"
   xmlns:rdf="http://www.w3.org/1999/02/22-rdf-syntax-ns#"
   xmlns:svg="http://www.w3.org/2000/svg"
   xmlns="http://www.w3.org/2000/svg"
   viewBox="0 0 364.25333 138.62666"
   height="138.62666"
   width="364.25333"
   xml:space="preserve"
   id="svg2"
   version="1.1"><metadata
     id="metadata8"><rdf:RDF><cc:Work
         rdf:about=""><dc:format>image/svg+xml</dc:format><dc:type
           rdf:resource="http://purl.org/dc/dcmitype/StillImage" /></cc:Work></rdf:RDF></metadata><defs
     id="defs6" /><g
     transform="matrix(1.3333333,0,0,-1.3333333,0,138.62667)"
     id="g10"><g
       transform="scale(0.1)"
       id="g12"><path
         id="path14"
         style="fill:#201916;fill-opacity:1;fill-rule:nonzero;stroke:none"
         d="m 1172.27,190.391 c 9.1,4.25 6.31,17.754 -3.68,17.754 h -0.44 c -63.41,0 -120.22,44.191 -131.22,106.718 -4.99,28.477 -0.29,55.344 11,78.528 h -7.63 c -37.28,0 -72.07,-19.524 -92.179,-50.344 2.938,-81.465 63.709,-167.039 160.589,-167.039 22.31,0 44.03,5.137 63.56,14.383 m 561.89,179.66 c 2.5,5 -0.14,11.308 -5.58,12.918 -23.18,6.758 -47.41,10.422 -71.92,10.422 h -32.14 c -4.55,0 -8.37,-3.223 -9.1,-7.485 l -40.96,-211.668 c -6.16,-32.004 -21.87,-61.062 -44.62,-83.5153 -6.46,-6.3164 -1.76,-17.3243 7.34,-17.3243 33.32,0 63.7,19.2305 78.24,49.3166 l 118.74,247.336 m 202.86,335.703 c 10.43,3.965 12.63,17.762 4.11,24.961 -53.28,45.937 -121.39,75.293 -195.96,80.133 h -31.41 v 0.746 H 984.527 c -113.761,0 -226.347,18.191 -334.379,54.011 l -141.796,75.266 c -73.688,30.527 -156.184,33.613 -232.071,8.809 l -27.449,-9.102 C 358.48,920.91 478.848,864.043 609.188,817.656 840.82,735.313 1103.42,627.813 1395.97,627.813 c 238.97,0 431.99,36.398 541.05,77.941 m 342.31,-511.555 v 28.914 c 0,40.082 -21.72,76.926 -56.81,96.301 l -109.35,60.625 c -34.35,19.082 -55.64,56.359 -55.64,97.609 0,60.625 -16.29,117.579 -44.62,166.602 -3.81,6.465 -12.04,8.809 -18.79,5.723 -104.8,-46.817 -312.21,-95.559 -598.15,-95.559 -305.17,0 -574.083,124.004 -811.29,208.254 -174.09,61.949 -329.391,116.992 -456.504,115.672 -12.336,-0.145 -19.383,-14.68 -11.453,-24.07 14.824,-17.473 34.937,-29.954 57.98,-35.532 L 366.992,772.805 C 458.883,750.781 579.246,671.848 664.09,633.098 741.738,597.871 784.453,514.641 768.012,430.82 L 717.52,174.094 C 709.594,133.293 686.109,97.1797 652.203,73.3984 h 28.18 c 33.172,0 63.851,19.375 78.234,49.3166 l 116.555,240.586 c 30.527,62.824 95.262,103.488 165.128,103.488 h 616.36 c 75.6,0 148.99,-25.988 207.71,-73.547 l 51.22,-41.387 c 33.17,-26.863 72.52,-45.066 114.5,-52.851 l 125.65,-23.328 c 25.1,-4.699 48.58,-14.535 69.28,-28.477 20.7,-14.094 38.6,-32.297 52.26,-53.73 0.58,-0.879 2.05,-0.442 2.05,0.73 m 361.94,470.274 c 17.61,18.203 21.87,11.34 12.33,33.8 -21.87,51.668 -144.11,111.844 -336.84,111.844 l -316.33,0.442 c -13.5,0 -20.1,-16.731 -9.98,-25.539 13.66,-11.75 26.43,-24.512 38.31,-38.016 2.5,-2.649 5.73,-4.406 9.4,-4.699 85.58,-7.051 178.34,-11.043 268.32,-42.461 130.94,-45.789 282.83,-88.953 334.79,-35.371 m 79.85,62.422 c 20.99,-49.618 10.86,-74.317 -27.01,-113.504 -33.17,-34.055 -75.59,-47.121 -124.03,-47.121 -75.6,0 -194.31,31.562 -287.81,64.296 -55.64,19.375 -114.71,24.856 -165.87,23.809 -11.75,2.941 -21.58,-8.801 -16.88,-19.961 20.1,-48.289 31.41,-101.133 31.41,-156.766 0,-14.242 7.04,-27.453 17.76,-33.468 l 109.5,-60.625 c 58.27,-32.285 94.54,-93.641 94.54,-160.442 V 106.574 c 0,-21.8787 -14.1,-40.6677 -35.09,-46.9724 -21.58,-6.4571 -44.77,3.8164 -56.81,22.8984 l -45.64,71.777 c -16.3,25.684 -42.72,43.45 -72.67,49.172 l -125.79,23.34 c -54.02,10.125 -104.66,33.465 -147.23,67.969 l -51.23,41.387 c -4.55,3.671 -9.25,7.046 -13.94,10.425 L 1681.62,90.8672 C 1655.04,35.6719 1598.39,0 1537.18,0 h -117.73 c -22.31,0 -41.1,14.2383 -47.26,35.5313 -6.31,22.164 4.84,45.6523 24.81,57.2421 l 63.55,36.6996 c 21.88,12.617 36.99,34.05 41.84,58.711 l 37.58,194.199 c 1.02,5.722 -3.23,11.008 -9.11,11.008 h -367.11 c -34.49,-0.442 -61.5,-31.993 -54.16,-67.817 5.43,-26.121 29.65,-44.031 56.22,-44.031 h 153.68 c 6.9,0 11.31,-7.195 8.37,-13.211 l -17.18,-36.113 c -36.1,-75.442 -110.52,-126.817 -194.05,-129.465 -97.61,-3.2306 -171.005,51.523 -210.196,123.594 -3.524,6.465 -13.067,6.164 -16.293,-0.586 L 824.672,90.7227 C 798.254,35.6719 741.594,0 680.383,0 H 562.516 c -22.168,0 -40.953,14.2383 -47.121,35.5313 -6.313,22.164 4.843,45.6523 24.804,57.2421 l 63.563,36.6996 c 21.722,12.617 36.992,34.05 41.836,58.711 l 50.343,256.875 c 9.836,49.914 -15.851,100.109 -62.089,121.25 C 551.941,603.594 436.133,680.762 349.965,701.32 L 157.527,747.402 C 102.484,760.613 57.2734,797.754 33.6445,849.277 L 1.34766,919.285 c -3.66797,8.078 0.4375,17.324 8.80864,20.121 l 243.2227,80.004 c 92.184,30.23 192.144,26.56 281.832,-10.29 L 673.188,935.188 C 773.738,902.012 878.84,884.98 984.672,884.98 h 738.918 c 8.08,0 16.15,-0.292 24.08,-0.73 l 569.24,-0.734 c 287.26,0 388.65,-119.786 404.21,-156.621" /><path
         id="path16"
         style="fill:#464547;fill-opacity:1;fill-rule:nonzero;stroke:none"
         d="m 2653.6,698.273 c 9.54,-22.46 5.28,-15.597 -12.33,-33.8 -51.96,-53.582 -203.85,-10.418 -334.79,35.371 -89.98,31.418 -182.74,35.41 -268.32,42.461 -3.67,0.293 -6.9,2.05 -9.4,4.699 -11.88,13.504 -24.65,26.269 -38.31,38.016 -10.12,8.808 -3.52,25.539 9.98,25.539 l 316.33,-0.442 c 192.73,0 314.97,-60.176 336.84,-111.844" /><path
         id="path18"
         style="fill:#ffffff;fill-opacity:1;fill-rule:nonzero;stroke:none"
         d="m 1941.13,730.715 c 8.52,-7.199 6.32,-20.996 -4.11,-24.961 -109.06,-41.543 -302.08,-77.941 -541.05,-77.941 -292.55,0 -555.15,107.5 -786.779,189.843 -130.343,46.387 -250.711,103.25 -360.359,122.922 l 27.445,9.102 c 75.891,24.804 158.387,21.718 232.075,-8.809 l 141.796,-75.266 c 108.032,-35.82 220.618,-54.011 334.379,-54.011 h 729.233 v -0.742 h 31.41 c 74.57,-4.844 142.68,-34.2 195.96,-80.137" /><path
         id="path20"
         style="fill:#464547;fill-opacity:1;fill-rule:nonzero;stroke:none"
         d="m 1529.84,90.7227 c 22.75,22.4533 38.46,51.5113 44.62,83.5153 l 40.96,211.668 c 0.73,4.262 4.55,7.485 9.1,7.485 h 32.14 c 24.51,0 48.74,-3.664 71.92,-10.422 5.44,-1.61 8.08,-7.918 5.58,-12.918 L 1615.42,122.715 c -14.54,-30.0861 -44.92,-49.3166 -78.24,-49.3166 -9.1,0 -13.8,11.0079 -7.34,17.3243" /><path
         id="path22"
         style="fill:#464547;fill-opacity:1;fill-rule:nonzero;stroke:none"
         d="m 1172.27,190.391 c -19.53,-9.246 -41.25,-14.383 -63.56,-14.383 -96.88,0 -157.651,85.574 -160.589,167.039 20.109,30.82 54.899,50.344 92.179,50.344 h 7.63 c -11.29,-23.184 -15.99,-50.051 -11,-78.528 11,-62.527 67.81,-106.718 131.22,-106.718 h 0.44 c 9.99,0 12.78,-13.504 3.68,-17.754" /><path
         id="path24"
         style="fill:#464547;fill-opacity:1;fill-rule:nonzero;stroke:none"
         d="m 128.176,878.34 c 127.113,1.316 282.414,-53.723 456.504,-115.672 237.207,-84.25 506.12,-208.254 811.29,-208.254 285.94,0 493.35,48.742 598.15,95.559 6.75,3.086 14.98,0.742 18.79,-5.723 28.33,-49.023 44.62,-105.977 44.62,-166.602 0,-41.25 21.29,-78.527 55.64,-97.609 l 109.35,-60.625 c 35.09,-19.375 56.81,-56.219 56.81,-96.301 v -28.914 c 0,-1.172 -1.47,-1.609 -2.05,-0.73 -13.66,21.433 -31.56,39.636 -52.26,53.726 -20.7,13.95 -44.18,23.782 -69.28,28.481 l -125.65,23.328 c -41.98,7.785 -81.33,25.984 -114.5,52.851 l -51.22,41.387 c -58.72,47.559 -132.11,73.547 -207.71,73.547 H 1040.3 c -69.866,0 -134.601,-40.664 -165.128,-103.488 L 758.617,122.715 C 744.234,92.7734 713.555,73.3984 680.383,73.3984 h -28.18 c 33.906,23.7813 57.391,59.8946 65.317,100.6956 l 50.492,256.726 c 16.441,83.821 -26.274,167.051 -103.918,202.278 -84.848,38.75 -205.211,117.683 -297.102,139.707 l -192.289,45.933 c -23.043,5.578 -43.156,18.059 -57.98,35.532 -7.93,9.39 -0.883,23.925 11.453,24.07" /><path
         id="path26"
         style="fill:#2c2b2c;fill-opacity:1;fill-rule:nonzero;stroke:none"
         d="m 1537.18,73.3984 c -6.19,0 -10.34,5.086 -10.34,10.3282 0.01,2.4687 0.93,4.9726 3,6.9961 22.75,22.4533 38.46,51.5113 44.62,83.5153 l 40.96,211.668 c 0.73,4.262 4.55,7.485 9.1,7.485 h 32.14 c 24.51,0 48.74,-3.664 71.92,-10.422 4.04,-1.196 6.53,-4.981 6.53,-8.895 0,-1.359 -0.3,-2.734 -0.95,-4.023 L 1615.42,122.715 C 1600.88,92.6289 1570.5,73.3984 1537.18,73.3984" /><path
         id="path28"
         style="fill:#2c2b2c;fill-opacity:1;fill-rule:nonzero;stroke:none"
         d="m 1108.71,176.008 c -96.88,0 -157.651,85.574 -160.589,167.039 20.109,30.82 54.899,50.344 92.179,50.344 h 7.63 c -8.25,-16.938 -12.98,-35.836 -12.99,-55.891 v 0 c 0,-7.402 0.64,-14.961 1.99,-22.637 11,-62.527 67.81,-106.718 131.22,-106.718 h 0.44 c 5.82,0 9.19,-4.575 9.2,-9.239 0.01,-3.347 -1.72,-6.738 -5.52,-8.515 -19.53,-9.246 -41.25,-14.383 -63.56,-14.383" /></g></g></svg>